# xmcd
#
# Track frame offsets:
#	150
#	24546
#	51067
#	90965
#	138368
#	165380
#	223967
#	244714
#
# Disc length: 4391 seconds
#
# Revision: 2
# Processed by: cddbd v1.5.2PL0 Copyright (c) Steve Scherf et al.
# Submitted via: audiograbber 1.83.01
#
DISCID=62112508
DTITLE=Ken Follett - Die Spur der Füchse
DYEAR=2007
DGENRE=Hörbuch
TTITLE0=201_07
TTITLE1=202_08
TTITLE2=203_09
TTITLE3=204_10
TTITLE4=205_11
TTITLE5=206_12
TTITLE6=207_13
TTITLE7=208_14
EXTD=
EXTT0=
EXTT1=
EXTT2=
EXTT3=
EXTT4=
EXTT5=
EXTT6=
EXTT7=
PLAYORDER=
